<?xml version="1.0" encoding="UTF-8"?>
<svg width="20px" height="20px" viewBox="0 0 20 20" version="1.1" xmlns="http://www.w3.org/2000/svg" xmlns:xlink="http://www.w3.org/1999/xlink">
    <!-- Generator: Sketch 47.1 (45422) - http://www.bohemiancoding.com/sketch -->
    <title>cross</title>
    <desc>Created with Sketch.</desc>
    <defs></defs>
    <g id="Page-1" stroke="none" stroke-width="1" fill="none" fill-rule="evenodd">
        <g id="Artboard" transform="translate(-829.000000, -97.000000)" fill-rule="nonzero" fill="#E76E54">
            <g id="cross" transform="translate(829.000000, 97.000000)">
                <path d="M16.2269017,19.3527123 L10,13.1256581 L3.77309837,19.3527123 C2.90989551,20.2157626 1.51049061,20.2157626 0.647287708,19.3527123 C-0.215762569,18.4895094 -0.215762569,17.0901045 0.647287708,16.2269017 L6.87434198,10 L0.647287708,3.77309837 C-0.215762569,2.90989551 -0.215762569,1.51049061 0.647287708,0.647287708 C1.51049061,-0.215762569 2.90989551,-0.215762569 3.77309837,0.647287708 L10,6.87434198 L16.2269017,0.647287708 C17.0901045,-0.215762569 18.4895094,-0.215762569 19.3527123,0.647287708 C20.2157626,1.51049061 20.2157626,2.90989551 19.3527123,3.77309837 L13.1256581,10 L19.3527123,16.2269017 C20.2157626,17.0901045 20.2157626,18.4895094 19.3527123,19.3527123 C18.4895094,20.2157626 17.0901045,20.2157626 16.2269017,19.3527123 L16.2269017,19.3527123 Z" id="Shape"></path>
            </g>
        </g>
    </g>
</svg>