<?xml version="1.0" encoding="UTF-8"?>
<svg width="20px" height="20px" viewBox="0 0 20 20" version="1.1" xmlns="http://www.w3.org/2000/svg" xmlns:xlink="http://www.w3.org/1999/xlink">
    <!-- Generator: Sketch 47.1 (45422) - http://www.bohemiancoding.com/sketch -->
    <title>edit</title>
    <desc>Created with Sketch.</desc>
    <defs></defs>
    <g id="Page-1" stroke="none" stroke-width="1" fill="none" fill-rule="evenodd">
        <g id="Artboard" transform="translate(-794.000000, -96.000000)" fill-rule="nonzero">
            <g id="edit" transform="translate(794.000000, 96.000000)">
                <path d="M14.6659259,0.867777778 C15.822963,-0.289259259 17.6992593,-0.289259259 18.8562963,0.867777778 C20.0133333,2.02481481 20.0133333,3.90111111 18.8562963,5.05814815 L14.6659259,0.867777778 Z" id="Shape" fill="#D75A4A"></path>
                <polygon id="Shape" fill="#ED8A19" points="15.7133333 6.62925926 6.11555556 16.2274074 5.91925926 17.9951852 16.4992593 7.41481481 16.4992593 7.41481481"></polygon>
                <polygon id="Shape" fill="#ED8A19" points="3.82407407 15.9 5.59185185 15.7037037 15.1896296 6.10555556 13.6185185 4.53444444 4.02037037 14.1322222"></polygon>
                <polygon id="Shape" fill="#ED8A19" points="13.0948148 4.01074074 12.3088889 3.22481481 12.3088889 3.22481481 1.72888889 13.8048148 3.49666667 13.6085185"></polygon>
                <polygon id="Shape" fill="#C7CAC7" points="18.0703704 5.8437037 18.0703704 5.8437037 18.8562963 5.05814815 14.6659259 0.867777778 13.88 1.6537037 13.8803704 1.6537037"></polygon>
                <polygon id="Shape" fill="#C7CAC7" points="13.3562963 2.17740741 13.3562963 2.17740741 12.8325926 2.70111111 12.8325926 2.70111111 17.022963 6.89111111 17.022963 6.89111111 17.5466667 6.36740741 17.5466667 6.36740741"></polygon>
                <path d="M5.34222222,16.477037 L3.44518519,16.6877778 C3.43185185,16.6892593 3.41814815,16.69 3.40481481,16.69 C3.40481481,16.69 3.40444444,16.69 3.40444444,16.69 L3.40444444,16.69 L3.40444444,16.69 C3.40407407,16.69 3.40407407,16.69 3.40407407,16.69 C3.39074074,16.69 3.37703704,16.6892593 3.3637037,16.6877778 C3.34925926,16.6862963 3.33740741,16.6781481 3.3237037,16.6748148 C3.29703704,16.6685185 3.27148148,16.6618519 3.24703704,16.65 C3.22851852,16.6411111 3.21259259,16.6303704 3.19592593,16.6188889 C3.17481481,16.6040741 3.15555556,16.5881481 3.13777778,16.5692593 C3.1237037,16.5544444 3.11222222,16.5392593 3.10074074,16.5222222 C3.08666667,16.5011111 3.07518519,16.4792593 3.06555556,16.4551852 C3.05740741,16.4351852 3.05148148,16.4155556 3.04703704,16.3940741 C3.04444444,16.3822222 3.03814815,16.3722222 3.03666667,16.36 C3.03518519,16.3459259 3.04037037,16.332963 3.04037037,16.3192593 C3.04037037,16.3051852 3.03518519,16.2925926 3.03666667,16.2785185 L3.24740741,14.3814815 L1.35037037,14.5922222 C1.33666667,14.5937037 1.32259259,14.5944444 1.30925926,14.5944444 C1.28,14.5944444 1.25296296,14.5855556 1.22518519,14.5788889 L0.163703704,19.0366667 L0.943703704,18.2566667 C1.08851852,18.1118519 1.32259259,18.1118519 1.46740741,18.2566667 C1.61222222,18.4014815 1.61222222,18.6355556 1.46740741,18.7803704 L0.687407407,19.5603704 L5.14296296,18.4996296 C5.13333333,18.4592593 5.12703704,18.4174074 5.13185185,18.3740741 L5.34222222,16.477037 Z" id="Shape" fill="#FBCE9D"></path>
                <path d="M1.46740741,18.2566667 C1.32259259,18.1118519 1.08851852,18.1118519 0.943703704,18.2566667 L0.163703704,19.0366667 L0,19.7240741 L0.687407407,19.5603704 L1.46740741,18.7803704 C1.61185185,18.6355556 1.61185185,18.4014815 1.46740741,18.2566667 Z" id="Shape" fill="#38454F"></path>
                <polygon id="Shape" fill="#F2ECBF" points="18.0703704 5.8437037 13.8803704 1.6537037 13.88 1.6537037 13.3562963 2.17740741 13.3562963 2.17740741 17.5466667 6.36740741 17.5466667 6.36740741"></polygon>
                <path d="M15.1896296,6.10555556 L5.59185185,15.7037037 L3.82407407,15.9 L4.02037037,14.1322222 L13.6185185,4.53444444 L13.0948148,4.01074074 L3.49666667,13.6085185 L1.72888889,13.8048148 L1.30925926,14.2244444 L1.22481481,14.5788889 C1.25259259,14.5855556 1.27925926,14.5944444 1.30888889,14.5944444 C1.32222222,14.5944444 1.3362963,14.5937037 1.35,14.5922222 L3.24703704,14.3814815 L3.0362963,16.2785185 C3.03481481,16.2925926 3.04,16.3055556 3.04,16.3192593 C3.04,16.3333333 3.03481481,16.3459259 3.0362963,16.36 C3.03777778,16.3722222 3.04407407,16.3822222 3.04666667,16.3940741 C3.05111111,16.4151852 3.05740741,16.4355556 3.06518519,16.4551852 C3.07481481,16.4788889 3.0862963,16.5011111 3.10037037,16.5222222 C3.11148148,16.5388889 3.1237037,16.5548148 3.13740741,16.5692593 C3.15481481,16.5877778 3.17444444,16.6040741 3.19555556,16.6188889 C3.21185185,16.6303704 3.22851852,16.6414815 3.24666667,16.65 C3.27074074,16.6614815 3.29666667,16.6685185 3.32333333,16.6748148 C3.33740741,16.6781481 3.34888889,16.6859259 3.36333333,16.6877778 C3.37666667,16.6892593 3.39,16.69 3.4037037,16.69 L3.40407407,16.69 L3.40407407,16.69 L3.40444444,16.69 L3.40481481,16.69 C3.40481481,16.69 3.40518519,16.69 3.40518519,16.69 L3.40518519,16.69 C3.41814815,16.69 3.43185185,16.6892593 3.44555556,16.6877778 L5.34259259,16.477037 L5.13185185,18.3740741 C5.12703704,18.4177778 5.13333333,18.4592593 5.14296296,18.4996296 L5.49962963,18.4148148 L5.91925926,17.9955556 L6.11555556,16.2277778 L15.7133333,6.62962963 L15.1896296,6.10555556 Z" id="Shape" fill="#EBBA16"></path>
                <polygon id="Shape" fill="#F2ECBF" points="17.022963 6.89111111 12.8325926 2.70111111 12.8325926 2.70111111 12.3088889 3.22481481 12.3088889 3.22481481 13.0948148 4.01074074 13.6185185 4.53444444 15.1896296 6.10555556 15.7133333 6.62925926 16.4992593 7.41481481 16.4992593 7.41481481"></polygon>
            </g>
        </g>
    </g>
</svg>